Normalized EMG Linear Envelopes
nRows=203
nColumns=4

endheader
time	 med_gas_r	  soleus_r	 tib_ant_r	
4.45766	  0.009552	  0.058665	  0.004920	
4.49093	  0.009140	  0.047058	  0.004909	
4.52419	  0.008748	  0.035874	  0.004905	
4.55746	  0.008403	  0.025729	  0.004910	
4.59073	  0.008114	  0.017298	  0.004921	
4.62399	  0.007870	  0.010998	  0.004931	
4.65726	  0.007652	  0.006814	  0.004932	
4.69052	  0.007442	  0.004408	  0.004926	
4.72379	  0.007243	  0.003339	  0.004917	
4.75706	  0.007074	  0.003216	  0.004912	
4.79032	  0.006950	  0.003739	  0.004916	
4.82359	  0.006872	  0.004685	  0.004932	
4.85685	  0.006828	  0.005890	  0.004962	
4.89012	  0.006802	  0.007217	  0.005007	
4.92339	  0.006790	  0.008501	  0.005066	
4.95665	  0.006792	  0.009527	  0.005140	
4.98992	  0.006799	  0.010083	  0.005228	
5.02319	  0.006798	  0.010062	  0.005327	
5.05645	  0.006783	  0.009528	  0.005427	
5.08972	  0.006770	  0.008684	  0.005510	
5.12298	  0.006795	  0.007761	  0.005537	
5.15625	  0.006892	  0.006921	  0.005447	
5.18952	  0.007085	  0.006227	  0.005158	
5.22278	  0.007385	  0.005672	  0.004569	
5.25605	  0.007794	  0.005220	  0.003583	
5.28931	  0.008288	  0.004826	  0.002126	
5.32258	  0.008809	  0.004449	  0.000166	
5.35585	  0.009258	  0.004056	 -0.002237	
5.38911	  0.009531	  0.003645	 -0.004858	
5.42238	  0.009569	  0.003262	 -0.007220	
5.45565	  0.009398	  0.003012	 -0.008525	
5.48891	  0.009126	  0.003063	 -0.007633	
5.52218	  0.008906	  0.003648	 -0.003043	
5.55544	  0.008896	  0.005062	  0.007112	
5.58871	  0.009249	  0.007656	  0.024974	
5.62198	  0.010107	  0.011765	  0.052531	
5.65524	  0.011566	  0.017567	  0.090791	
5.68851	  0.013636	  0.024930	  0.138908	
5.72177	  0.016207	  0.033375	  0.193880	
5.75504	  0.019080	  0.042219	  0.251213	
5.78831	  0.022027	  0.050824	  0.306215	
5.82157	  0.024861	  0.058780	  0.355083	
5.85484	  0.027468	  0.065944	  0.395270	
5.8881	  0.029802	  0.072394	  0.425367	
5.92137	  0.031879	  0.078366	  0.445130	
5.95464	  0.033776	  0.084185	  0.455879	
5.9879	  0.035627	  0.090096	  0.460755	
6.02117	  0.037573	  0.096048	  0.464095	
6.05444	  0.039661	  0.101578	  0.469900	
6.0877	  0.041754	  0.105952	  0.480304	
6.12097	  0.043558	  0.108538	  0.494971	
6.15423	  0.044755	  0.109127	  0.511541	
6.1875	  0.045143	  0.107983	  0.526651	
6.22077	  0.044678	  0.105595	  0.537222	
6.25403	  0.043454	  0.102402	  0.541761	
6.2873	  0.041667	  0.098726	  0.540911	
6.32056	  0.039583	  0.094874	  0.536575	
6.35383	  0.037489	  0.091238	  0.530171	
6.3871	  0.035639	  0.088257	  0.521627	
6.42036	  0.034222	  0.086271	  0.509981	
6.45363	  0.033349	  0.085398	  0.494760	
6.4869	  0.033033	  0.085496	  0.476716	
6.52016	  0.033169	  0.086265	  0.457536	
6.55343	  0.033563	  0.087422	  0.439099	
6.58669	  0.034024	  0.088854	  0.422868	
6.61996	  0.034451	  0.090607	  0.409492	
6.65323	  0.034840	  0.092715	  0.398651	
6.68649	  0.035209	  0.094980	  0.389451	
6.71976	  0.035521	  0.096928	  0.381415	
6.75302	  0.035679	  0.097981	  0.375363	
6.78629	  0.035580	  0.097735	  0.373288	
6.81956	  0.035187	  0.096122	  0.377125	
6.85282	  0.034553	  0.093393	  0.387319	
6.88609	  0.033809	  0.090020	  0.402241	
6.91935	  0.033112	  0.086607	  0.418730	
6.95262	  0.032597	  0.083778	  0.433272	
6.98589	  0.032322	  0.082006	  0.443053	
7.01915	  0.032246	  0.081450	  0.446532	
7.05242	  0.032248	  0.081905	  0.443591	
7.08569	  0.032191	  0.082927	  0.435484	
7.11895	  0.031992	  0.084019	  0.424523	
7.15222	  0.031649	  0.084772	  0.413330	
7.18548	  0.031221	  0.084898	  0.403760	
7.21875	  0.030778	  0.084236	  0.396233	
7.25202	  0.030363	  0.082794	  0.390101	
7.28528	  0.029999	  0.080775	  0.384774	
7.31855	  0.029707	  0.078524	  0.380520	
7.35181	  0.029516	  0.076401	  0.378267	
7.38508	  0.029447	  0.074654	  0.378779	
7.41835	  0.029490	  0.073373	  0.382134	
7.45161	  0.029613	  0.072496	  0.387805	
7.48488	  0.029790	  0.071873	  0.394876	
7.51815	  0.030026	  0.071342	  0.401942	
7.55141	  0.030342	  0.070804	  0.406993	
7.58468	  0.030733	  0.070256	  0.407970	
7.61794	  0.031145	  0.069768	  0.404051	
7.65121	  0.031469	  0.069434	  0.396741	
7.68448	  0.031588	  0.069333	  0.389654	
7.71774	  0.031427	  0.069515	  0.386942	
7.75101	  0.030986	  0.070018	  0.391446	
7.78427	  0.030344	  0.070881	  0.403714	
7.81754	  0.029636	  0.072149	  0.422116	
7.85081	  0.028999	  0.073841	  0.443521	
7.88407	  0.028528	  0.075916	  0.464075	
7.91734	  0.028260	  0.078256	  0.480065	
7.9506	  0.028193	  0.080696	  0.488926	
7.98387	  0.028308	  0.083044	  0.490049	
8.01714	  0.028581	  0.085098	  0.484798	
8.0504	  0.028975	  0.086632	  0.475636	
8.08367	  0.029416	  0.087415	  0.464960	
8.11694	  0.029807	  0.087257	  0.454456	
8.1502	  0.030052	  0.086103	  0.445183	
8.18347	  0.030090	  0.084097	  0.437982	
8.21673	  0.029918	  0.081595	  0.433668	
8.25	  0.029583	  0.079060	  0.432907	
8.28327	  0.029160	  0.076894	  0.435984	
8.31653	  0.028720	  0.075323	  0.442632	
8.3498	  0.028320	  0.074391	  0.451953	
8.38306	  0.028007	  0.074046	  0.462404	
8.41633	  0.027827	  0.074201	  0.471998	
8.4496	  0.027826	  0.074730	  0.478804	
8.48286	  0.028034	  0.075453	  0.481542	
8.51613	  0.028443	  0.076184	  0.479866	
8.5494	  0.028995	  0.076814	  0.474218	
8.58266	  0.029594	  0.077362	  0.465580	
8.61593	  0.030131	  0.077917	  0.455454	
8.64919	  0.030525	  0.078545	  0.445858	
8.68246	  0.030745	  0.079235	  0.438885	
8.71573	  0.030824	  0.079949	  0.435799	
8.74899	  0.030834	  0.080718	  0.436307	
8.78226	  0.030861	  0.081656	  0.438687	
8.81552	  0.030970	  0.082898	  0.440830	
8.84879	  0.031198	  0.084498	  0.441517	
8.88206	  0.031550	  0.086413	  0.441071	
8.91532	  0.032011	  0.088534	  0.441028	
8.94859	  0.032541	  0.090748	  0.443174	
8.98185	  0.033082	  0.092964	  0.448760	
9.01512	  0.033573	  0.095131	  0.458433	
9.04839	  0.033994	  0.097253	  0.472740	
9.08165	  0.034403	  0.099398	  0.492581	
9.11492	  0.034943	  0.101692	  0.519083	
9.14819	  0.035785	  0.104275	  0.552891	
9.18145	  0.037034	  0.107239	  0.593209	
9.21472	  0.038653	  0.110603	  0.637123	
9.24798	  0.040461	  0.114312	  0.679739	
9.28125	  0.042203	  0.118212	  0.715551	
9.31452	  0.043662	  0.122013	  0.740657	
9.34778	  0.044741	  0.125334	  0.754527	
9.38105	  0.045478	  0.127927	  0.759928	
9.41431	  0.046001	  0.129931	  0.760988	
9.44758	  0.046462	  0.131932	  0.760941	
9.48085	  0.047000	  0.134690	  0.761253	
9.51411	  0.047717	  0.138681	  0.762453	
9.54738	  0.048641	  0.143769	  0.765451	
9.58065	  0.049700	  0.149269	  0.771982	
9.61391	  0.050778	  0.154429	  0.783783	
9.64718	  0.051839	  0.159034	  0.801265	
9.68044	  0.052998	  0.163648	  0.822759	
9.71371	  0.054467	  0.169241	  0.844908	
9.74698	  0.056416	  0.176417	  0.864046	
9.78024	  0.058903	  0.184891	  0.877781	
9.81351	  0.061911	  0.193649	  0.885755	
9.84677	  0.065378	  0.201595	  0.888871	
9.88004	  0.069119	  0.207975	  0.887441	
9.91331	  0.072713	  0.212234	  0.879936	
9.94657	  0.075496	  0.213629	  0.863744	
9.97984	  0.076751	  0.211205	  0.837376	
10.0131	  0.075967	  0.204238	  0.801932	
10.0464	  0.073024	  0.192733	  0.760269	
10.0796	  0.068210	  0.177517	  0.714706	
10.1129	  0.062110	  0.159990	  0.665589	
10.1462	  0.055444	  0.141873	  0.612069	
10.1794	  0.048936	  0.125153	  0.554216	
10.2127	  0.043214	  0.112040	  0.494321	
10.246	  0.038732	  0.104595	  0.436123	
10.2792	  0.035688	  0.104021	  0.382683	
10.3125	  0.033983	  0.110048	  0.334797	
10.3458	  0.033276	  0.121050	  0.291182	
10.379	  0.033153	  0.134992	  0.249999	
10.4123	  0.033324	  0.150538	  0.210351	
10.4456	  0.033751	  0.167404	  0.172746	
10.4788	  0.034632	  0.185705	  0.138559	
10.5121	  0.036232	  0.204924	  0.109182	
10.5454	  0.038604	  0.223287	  0.085423	
10.5786	  0.041317	  0.237855	  0.067325	
10.6119	  0.043429	  0.245163	  0.054229	
10.6452	  0.043829	  0.242208	  0.044986	
10.6784	  0.041815	  0.227577	  0.038286	
10.7117	  0.037502	  0.202275	  0.033026	
10.745	  0.031737	  0.169734	  0.028552	
10.7782	  0.025633	  0.134780	  0.024643	
10.8115	  0.020080	  0.102012	  0.021296	
10.8448	  0.015553	  0.074452	  0.018516	
10.878	  0.012189	  0.053106	  0.016239	
10.9113	  0.009938	  0.037452	  0.014377	
10.9446	  0.008655	  0.026377	  0.012882	
10.9778	  0.008120	  0.018916	  0.011763	
11.0111	  0.008046	  0.014447	  0.011063	
11.0444	  0.008123	  0.012487	  0.010829	
11.0776	  0.008083	  0.012447	  0.011099	
11.1109	  0.007764	  0.013612	  0.011869	
11.1442	  0.007140	  0.015329	  0.013055	
11.1774	  0.006296	  0.017178	  0.014479	
